# xmcd
#
# Track frame offsets:
#	150
#	29828
#	48289
#	75267
#	104417
#	131003
#	157659
#	185953
#	208591
#	230777
#	265296
#	297335
#
# Disc length: 4347 seconds
#
# Revision: 0
# Processed by: cddbd v1.5.1PL0 Copyright (c) Steve Scherf et al.
# Submitted via: dBpowerAMP V4.0
#
DISCID=ad10f90c
DTITLE=Sjöwall and Wahlöö - Mannen på balkongen - CD-BOK 02/05
DYEAR=1967
DGENRE=CD-BOK
TTITLE0=02.01
TTITLE1=02.02
TTITLE2=02.03
TTITLE3=02.04
TTITLE4=02.05
TTITLE5=02.06
TTITLE6=02.07
TTITLE7=02.08
TTITLE8=02.09
TTITLE9=02.10
TTITLE10=02.11
TTITLE11=02.12
EXTD=
EXTT0=
EXTT1=
EXTT2=
EXTT3=
EXTT4=
EXTT5=
EXTT6=
EXTT7=
EXTT8=
EXTT9=
EXTT10=
EXTT11=
PLAYORDER=
